<?xml version="1.0" encoding="utf-8"?>
<!-- Generator: Adobe Illustrator 19.0.1, SVG Export Plug-In . SVG Version: 6.00 Build 0)  -->
<svg version="1.1" id="Laag_1" xmlns="http://www.w3.org/2000/svg" xmlns:xlink="http://www.w3.org/1999/xlink" x="0px" y="0px"
	 width="20px" height="20px" viewBox="-469 271 20 20" style="enable-background:new -469 271 20 20;" xml:space="preserve">
<path d="M-468.5,291c-0.1,0-0.3-0.1-0.4-0.1c-0.1-0.1-0.2-0.3-0.1-0.5c1.5-4.2,3.2-6.4,4.8-6.4c0.5,0,1.1,0.2,1.5,0.7
	c0.7,0.7,0.8,1.5,0.6,1.9c-0.3,1.5-2.5,3-6.3,4.4C-468.4,291-468.4,291-468.5,291L-468.5,291z M-464.2,285c-0.5,0-1.1,0.4-1.7,1.3
	c-0.6,0.8-1.2,2-1.8,3.4c1.3-0.5,2.4-1.1,3.2-1.6c1.1-0.7,1.4-1.3,1.5-1.6c0.1-0.3,0-0.7-0.4-1C-463.6,285.1-463.9,285-464.2,285
	L-464.2,285z"/>
<g id="rocket">
	<path d="M-455.5,280c1.4,0,2.5-1.1,2.5-2.5s-1.1-2.5-2.5-2.5s-2.5,1.1-2.5,2.5S-456.9,280-455.5,280z M-455.5,276
		c0.8,0,1.5,0.7,1.5,1.5s-0.7,1.5-1.5,1.5s-1.5-0.7-1.5-1.5S-456.3,276-455.5,276z"/>
	<path d="M-449.5,271L-449.5,271c-2.6,0-4.9,0.4-6.9,1.3c-1.6,0.7-3,1.7-4.1,3c-0.2,0.2-0.4,0.5-0.6,0.7c-0.9,0.1-1.7,0.4-2.6,1
		c-0.7,0.5-1.5,1.2-2.2,2.2c-1.2,1.5-2,3-2,3.1c-0.1,0.2,0,0.5,0.2,0.6c0.1,0.1,0.2,0.1,0.3,0.1c0.1,0,0.3,0,0.4-0.1
		c0,0,0.5-0.5,1.3-0.9c0.7-0.4,1.7-0.8,3-0.9c0.3,0.8,1.2,1.8,1.7,2.2s1.4,1.3,2.2,1.7c-0.1,1.3-0.5,2.3-0.9,3
		c-0.5,0.8-0.9,1.3-0.9,1.3c-0.2,0.2-0.2,0.4-0.1,0.6c0.1,0.1,0.2,0.2,0.4,0.2c0.1,0,0.2,0,0.2-0.1c0.1,0,1.6-0.8,3.1-2
		c0.9-0.7,1.6-1.5,2.2-2.2c0.6-0.9,1-1.8,1-2.6c0.2-0.2,0.5-0.4,0.7-0.6c1.3-1.1,2.3-2.5,3-4.1c0.9-2,1.3-4.3,1.3-6.9V271H-449.5z
		 M-462.9,280c-1.2,0.1-2.2,0.4-2.9,0.8c1-1.4,2.4-3.1,4.1-3.6C-462.5,278.3-462.8,279.4-462.9,280z M-458.8,287.9
		c0.4-0.8,0.7-1.8,0.8-2.9c0.7-0.1,1.7-0.5,2.8-1.1C-455.7,285.5-457.4,286.9-458.8,287.9z M-454,281.8L-454,281.8
		c-2.1,1.8-4.2,2.2-4.5,2.2c0,0-0.2,0-0.8-0.4c-0.4-0.3-0.8-0.7-1.3-1.1c-0.4-0.4-0.8-0.9-1.1-1.3c-0.4-0.6-0.4-0.8-0.4-0.8
		c0-0.3,0.4-2.5,2.2-4.5c2.2-2.5,5.6-3.8,9.7-3.9C-450.1,276.2-451.5,279.6-454,281.8z"/>
</g>
</svg>
