<svg xmlns="http://www.w3.org/2000/svg" width="20" height="20" viewBox="-469 271 20 20"><path d="M-468.5 291c-.1 0-.3-.1-.4-.1-.1-.1-.2-.3-.1-.5 1.5-4.2 3.2-6.4 4.8-6.4.5 0 1.1.2 1.5.7.7.7.8 1.5.6 1.9-.3 1.5-2.5 3-6.3 4.4h-.1zm4.3-6c-.5 0-1.1.4-1.7 1.3-.6.8-1.2 2-1.8 3.4 1.3-.5 2.4-1.1 3.2-1.6 1.1-.7 1.4-1.3 1.5-1.6.1-.3 0-.7-.4-1-.2-.4-.5-.5-.8-.5zM-455.5 280c1.4 0 2.5-1.1 2.5-2.5s-1.1-2.5-2.5-2.5-2.5 1.1-2.5 2.5 1.1 2.5 2.5 2.5zm0-4c.8 0 1.5.7 1.5 1.5s-.7 1.5-1.5 1.5-1.5-.7-1.5-1.5.7-1.5 1.5-1.5z"/><path d="M-449.5 271c-2.6 0-4.9.4-6.9 1.3-1.6.7-3 1.7-4.1 3-.2.2-.4.5-.6.7-.9.1-1.7.4-2.6 1-.7.5-1.5 1.2-2.2 2.2-1.2 1.5-2 3-2 3.1-.1.2 0 .5.2.6.1.1.2.1.3.1.1 0 .3 0 .4-.1 0 0 .5-.5 1.3-.9.7-.4 1.7-.8 3-.9.3.8 1.2 1.8 1.7 2.2s1.4 1.3 2.2 1.7c-.1 1.3-.5 2.3-.9 3-.5.8-.9 1.3-.9 1.3-.2.2-.2.4-.1.6.1.1.2.2.4.2.1 0 .2 0 .2-.1.1 0 1.6-.8 3.1-2 .9-.7 1.6-1.5 2.2-2.2.6-.9 1-1.8 1-2.6.2-.2.5-.4.7-.6 1.3-1.1 2.3-2.5 3-4.1.9-2 1.3-4.3 1.3-6.9v-.6h-.7zm-13.4 9c-1.2.1-2.2.4-2.9.8 1-1.4 2.4-3.1 4.1-3.6-.8 1.1-1.1 2.2-1.2 2.8zm4.1 7.9c.4-.8.7-1.8.8-2.9.7-.1 1.7-.5 2.8-1.1-.5 1.6-2.2 3-3.6 4zm4.8-6.1c-2.1 1.8-4.2 2.2-4.5 2.2 0 0-.2 0-.8-.4-.4-.3-.8-.7-1.3-1.1-.4-.4-.8-.9-1.1-1.3-.4-.6-.4-.8-.4-.8 0-.3.4-2.5 2.2-4.5 2.2-2.5 5.6-3.8 9.7-3.9.1 4.2-1.3 7.6-3.8 9.8z"/></svg>